<svg id="layer_3" data-name="layer 3" xmlns="http://www.w3.org/2000/svg" viewBox="0 0 1366 768"><defs><style>.cls-1{fill:#b54e4e;}.cls-2{fill:#a34343;}.cls-3{fill:#544e3c;}.cls-4{fill:#d88080;}.cls-5{fill:#1b1b30;}.cls-6{fill:#423c2e;}.cls-7{fill:#d3ccc5;opacity:0.2;}</style></defs><title>fears-blackhole-03</title><path class="cls-1" d="M1220.67,593.8c-1.88,2.14-4.31,1.78-6.78,5.09-3.18,4.26-1.32,7.75-3.05,11-1.5,2.87-5.3,4.8-10.18,5.64a41.83,41.83,0,0,1-26.29-4.8c-2.58-1.47-8-4.58-11.58-10.13a20.59,20.59,0,0,1-2.62-5.9,20.3,20.3,0,0,1-.54-2.78c-1-8.31,3.44-15.62,7.18-21.75,4.17-6.85,9.17-15.06,18.75-17.16,8.73-1.92,16.29,2.34,19.69,4.55l1.08.72C1220.25,567.79,1226.17,587.56,1220.67,593.8Z"/><path class="cls-2" d="M1165.19,583.67c-1.16-.74.63-5.58,2-8.12a14.73,14.73,0,0,1,7-7c.82-.36,4.44-1.93,5.23-.9C1181.26,570,1167.51,585.14,1165.19,583.67Z"/><path class="cls-3" d="M1174.1,571.88c.2-.66-8.7-1.75-12.37-8.46a13.62,13.62,0,0,1-1.58-6.49,2.83,2.83,0,0,0-2.84.12,2.89,2.89,0,0,0-1.23,2,18.62,18.62,0,0,0,6.28,9.36C1167.59,572.45,1173.93,572.43,1174.1,571.88Z"/><path class="cls-2" d="M1220.67,593.8c-1.88,2.14-4.31,1.78-6.78,5.09-3.18,4.26-1.32,7.75-3.05,11-1.5,2.87-5.3,4.8-10.18,5.64a13.62,13.62,0,0,0,5.3-7.73c.82-4-1.25-5.62-2-10.83-1.41-10,4.83-13.37,5.59-23.09.54-6.91-2.05-12.46-4.32-16.32l1.08.72C1220.25,567.79,1226.17,587.56,1220.67,593.8Z"/><path class="cls-4" d="M1175.11,591.07a19.17,19.17,0,0,1-7.93,7.94,18.69,18.69,0,0,1-4.39,1.64,20.59,20.59,0,0,1-2.62-5.9,18.29,18.29,0,0,0,6.35.12A18.58,18.58,0,0,0,1175.11,591.07Z"/><path class="cls-5" d="M887.2,152.4l-85.29,16.08a4,4,0,0,1-4.63-3.2l-.39-2.07-2.69-14.3-.66-3.49a4,4,0,0,1,3.19-4.67l85.15-16a4,4,0,0,1,4.67,3.19l.53,2.79,2.82,15,.39,2.07A4,4,0,0,1,887.2,152.4Z"/><rect x="793.01" y="154.37" width="102.08" height="6.1" transform="translate(-14.55 159.05) rotate(-10.67)"/><path class="cls-6" d="M1160.27,557.08c-.16-.49-1.59-.68-2.64-.16s-1.79,1.92-1.47,2.33,1.71-.15,2.28-.43C1159.18,558.45,1160.44,557.6,1160.27,557.08Z"/><path class="cls-7" d="M887.08,130.68a179.15,179.15,0,0,1-26.24,7.18c-18.46,3.56-28.35,2.39-43.36,6.59a130.11,130.11,0,0,1-16.87,3.67c-2.4.36-4.57.61-6.41.79l-.66-3.49a3.92,3.92,0,0,1,.13-2,4,4,0,0,1,3.06-2.68l85.15-16a4,4,0,0,1,4.51,2.58,5.43,5.43,0,0,1,.16.61Z"/><path class="cls-7" d="M886.39,127.28a206,206,0,0,1-22.63,5.34c-20.09,3.56-30.86,2.39-47.2,6.59a152.06,152.06,0,0,1-18.36,3.67c-1.61.22-3.13.4-4.53.55a4,4,0,0,1,3.06-2.68l85.15-16A4,4,0,0,1,886.39,127.28Z"/></svg>