<svg xmlns="http://www.w3.org/2000/svg" viewBox="0 0 1366 768"><defs><style>.cls-1{isolation:isolate;}.cls-2{fill:#184f6d;}.cls-3{fill:#1e567c;}.cls-4{fill:#2d6491;}.cls-5{fill:#666256;}.cls-6{fill:#060616;}.cls-7{fill:#101028;}.cls-8{fill:#124054;}.cls-9{fill:#896745;}.cls-10{fill:#e2e0d9;}.cls-11{fill:#b54e4e;}.cls-12{fill:#75736b;}.cls-13{fill:#303038;}.cls-14,.cls-21,.cls-22{fill:#e2debf;}.cls-15{fill:#d3cdab;}.cls-16{fill:#a34343;}.cls-17{fill:#544e3c;}.cls-18{fill:#cecabe;}.cls-19{fill:#ad4545;}.cls-20{fill:#99764f;}.cls-21{opacity:0.08;}.cls-21,.cls-22{mix-blend-mode:soft-light;}.cls-22{opacity:0.18;}.cls-23{fill:#be6464;}</style></defs><title>fears-blackhole-04</title><g class="cls-1"><g id="layer_4" data-name="layer 4"><path class="cls-2" d="M1230,768H319V608h751l46,46Z"/><path class="cls-3" d="M320,0V608h750V0ZM818.13,553.24,914,555l-.71,38.47-95.87-1.76Z"/><path class="cls-4" d="M1366,0V768H1230L1116,654l-46-46V0h63.74c-16.61,61.66-26.84,145.9-26.84,238.78,0,189,42.36,342.22,94.6,342.22s94.6-153.22,94.6-342.22c0-92.88-10.23-177.12-26.84-238.78Z"/><path class="cls-5" d="M985.35,459.16l-92.83,56.12-1-1.57v2.16l25.93,42.89L1011.28,502v-2.16l-1.09.36Zm-1.35,4a2,2,0,1,1-2,2A2,2,0,0,1,984,463.16Zm-87,56a2,2,0,1,1,2-2A2,2,0,0,1,897,519.16Zm25.21,27.39a2.35,2.35,0,0,1-3.23-.79l-15.79-26.14a2.35,2.35,0,1,1,4-2.42L923,543.33A2.34,2.34,0,0,1,922.21,546.55Zm9.4-6.26a2.35,2.35,0,0,1-3.23-.79l-15.79-26.14a2.35,2.35,0,0,1,.79-3.23,2.42,2.42,0,0,1,1.21-.33,2.32,2.32,0,0,1,2,1.13l15.81,26.14A2.36,2.36,0,0,1,931.61,540.29Zm8.61-3.92a2.35,2.35,0,0,1-3.23-.79L921.2,509.45a2.35,2.35,0,1,1,4-2.43L941,533.16A2.34,2.34,0,0,1,940.22,536.37Zm7.83-4.69a2.35,2.35,0,0,1-3.23-.8L929,504.75a2.35,2.35,0,1,1,4-2.43l15.8,26.14A2.36,2.36,0,0,1,948,531.68Zm7.83-5.49a2.34,2.34,0,0,1-3.23-.79l-15.79-26.13a2.35,2.35,0,1,1,4-2.43L956.68,523A2.34,2.34,0,0,1,955.88,526.19Zm7.83-4.69a2.36,2.36,0,0,1-3.23-.79l-15.79-26.14a2.35,2.35,0,0,1,4-2.43l15.8,26.14A2.35,2.35,0,0,1,963.71,521.5Zm9.4-6.27a2.35,2.35,0,0,1-3.23-.79L954.09,488.3a2.34,2.34,0,1,1,4-2.42L973.91,512A2.35,2.35,0,0,1,973.11,515.23Zm8.61-3.91a2.36,2.36,0,0,1-3.23-.79L962.7,484.39a2.36,2.36,0,0,1,.79-3.23,2.46,2.46,0,0,1,1.22-.33,2.34,2.34,0,0,1,2,1.13l15.8,26.14A2.36,2.36,0,0,1,981.72,511.32Zm7.83-4.7a2.36,2.36,0,0,1-3.23-.79l-15.79-26.14a2.36,2.36,0,0,1,.79-3.23,2.46,2.46,0,0,1,1.22-.33,2.37,2.37,0,0,1,2,1.13l15.8,26.14A2.36,2.36,0,0,1,989.55,506.62Zm7.83-5.48a2.36,2.36,0,0,1-3.23-.79l-15.79-26.14a2.36,2.36,0,0,1,.79-3.23,2.46,2.46,0,0,1,1.22-.33,2.34,2.34,0,0,1,2,1.13l15.8,26.14A2.36,2.36,0,0,1,997.38,501.14Zm7.85,1.15c-.1,0-1.09-.35-1.23-1.13s.86-2,2-2a2,2,0,0,1,2,2C1007.83,502.1,1006.31,502.62,1005.23,502.28Z"/><polygon class="cls-6" points="320.57 127.12 320.57 0.57 707.38 0.57 688.69 168.18 320.57 127.12"/><path d="M706.75,1.14,688.18,167.55l-367-40.94V1.14H706.75M708,0H320V127.63l369.19,41.18L708,0Z"/><path class="cls-7" d="M320,0H694.06L671.2,144.5,320,91Z"/><polygon class="cls-8" points="320 0 662.56 0 651.42 99.85 320 62.88 320 0"/><polygon class="cls-9" points="789.89 180.04 788.49 192.56 786.7 208.62 320 156.57 320 127.63 689.19 168.81 789.89 180.04"/><path class="cls-10" d="M1019.68,213.43l-48.92,43.45,7.72,8.69,48.92-43.45a9.68,9.68,0,0,0-7.72-8.69Z"/><path class="cls-11" d="M743.26,161l-61.69-22.82-5.05,13.65,61.69,22.82A14.8,14.8,0,0,0,743.26,161Z"/><path class="cls-10" d="M606.15,144.58,556,139.65l-1.42,14.49,50.12,4.93a15.78,15.78,0,0,0,1.42-14.49Z"/><path class="cls-12" d="M985.35,457l-93.81,56.71,25.93,42.89,93.81-56.71ZM984,461a2,2,0,1,1-2,2A2,2,0,0,1,984,461Zm-87,56a2,2,0,1,1,2-2A2,2,0,0,1,897,517Zm25.21,27.39a2.35,2.35,0,0,1-3.23-.79l-15.79-26.14a2.35,2.35,0,1,1,4-2.42L923,541.17A2.34,2.34,0,0,1,922.21,544.39Zm9.4-6.26a2.35,2.35,0,0,1-3.23-.79L912.59,511.2a2.35,2.35,0,0,1,.79-3.23,2.42,2.42,0,0,1,1.21-.33,2.32,2.32,0,0,1,2,1.13l15.81,26.14A2.36,2.36,0,0,1,931.61,538.13Zm8.61-3.92a2.35,2.35,0,0,1-3.23-.79L921.2,507.29a2.35,2.35,0,1,1,4-2.43L941,531A2.34,2.34,0,0,1,940.22,534.21Zm7.83-4.69a2.35,2.35,0,0,1-3.23-.8L929,502.59a2.35,2.35,0,1,1,4-2.43l15.8,26.14A2.36,2.36,0,0,1,948,529.52Zm7.83-5.49a2.34,2.34,0,0,1-3.23-.79l-15.79-26.13a2.35,2.35,0,1,1,4-2.43l15.8,26.14A2.34,2.34,0,0,1,955.88,524Zm7.83-4.69a2.36,2.36,0,0,1-3.23-.79l-15.79-26.14a2.35,2.35,0,0,1,4-2.43l15.8,26.14A2.35,2.35,0,0,1,963.71,519.34Zm9.4-6.27a2.35,2.35,0,0,1-3.23-.79l-15.79-26.14a2.34,2.34,0,1,1,4-2.42l15.81,26.13A2.35,2.35,0,0,1,973.11,513.07Zm8.61-3.91a2.36,2.36,0,0,1-3.23-.79L962.7,482.23a2.36,2.36,0,0,1,.79-3.23,2.46,2.46,0,0,1,1.22-.33,2.34,2.34,0,0,1,2,1.13l15.8,26.14A2.36,2.36,0,0,1,981.72,509.16Zm7.83-4.7a2.36,2.36,0,0,1-3.23-.79l-15.79-26.14a2.36,2.36,0,0,1,.79-3.23,2.46,2.46,0,0,1,1.22-.33,2.37,2.37,0,0,1,2,1.13l15.8,26.14A2.36,2.36,0,0,1,989.55,504.46Zm7.83-5.48a2.36,2.36,0,0,1-3.23-.79L978.36,472a2.36,2.36,0,0,1,.79-3.23,2.46,2.46,0,0,1,1.22-.33,2.34,2.34,0,0,1,2,1.13l15.8,26.14A2.36,2.36,0,0,1,997.38,499Zm8.62,2a2,2,0,1,1,2-2A2,2,0,0,1,1006,501Z"/><circle class="cls-13" cx="919" cy="551" r="2"/><path class="cls-14" d="M1236,629.5c-.49,1.24-1,2.48-1.59,3.74a108.37,108.37,0,0,1-6.1,11.61c-.22.36-.44.73-.67,1.09s-.28.46-.42.7c-.34.53-.68,1.07-1,1.6s-.8,1.24-1.22,1.86c-.21.32-.43.63-.65,1l-.07.1c-.47.69-1,1.38-1.45,2.07l-.11.16c-.5.68-1,1.36-1.51,2,0,.07-.1.15-.16.22-.44.59-.89,1.18-1.35,1.76-.67.87-1.36,1.73-2.06,2.59-10.44,12.73-24,24.35-39.73,31.87A114.23,114.23,0,0,1,1139,702.17a129.81,129.81,0,0,1-19.67.29,120,120,0,0,1-18.83-2.63c-19-4.25-32.91-12.82-34.91-22.79a0,0,0,0,0,0,0h0c-1.05-5.33,1.3-11.06,5.72-16.82,0,0,0,0,.06-.08,12.23-15.83,40.12-31.87,56.39-40.39q6.15-3.22,12.68-6.35l.33-.16c1.21-.58,3-1.44,5.32-2.48l.88-.4c1.5-.69,3.19-1.44,5-2.24l.51-.22c17.51-7.63,48.24-19.52,68.32-18.79a.09.09,0,0,1,.07,0c7,.26,12.68,2,16.07,6.09l.06.07C1242.61,602,1241.82,614.93,1236,629.5Z"/><ellipse class="cls-15" cx="1151.07" cy="635.65" rx="94.98" ry="24.7" transform="translate(-161.54 557.73) rotate(-25.51)"/><path class="cls-11" d="M1245.74,447.59c-5.62,8.32-17.4,11.9-21.13,8.63a5.43,5.43,0,0,1-1.23-1.82,5.75,5.75,0,0,0-1.82-2.22c-2.55-1.88-4.62-.76-6.6-1.79-4.39-2.28-5.17-13.61-.57-21.75,1.14-2,3.94-7,9.53-8.5s10.57,1.44,14.64,3.91a34.79,34.79,0,0,1,6.52,4.67,12.87,12.87,0,0,1,3.76,6.47C1250.14,441,1246.79,446,1245.74,447.59Z"/><path class="cls-16" d="M1230.49,422.62c2-1.79,11.9,4.24,11.25,6.45-.45,1.53-6.39,2.71-9.59-.66C1230.46,426.64,1229.46,423.54,1230.49,422.62Z"/><path class="cls-17" d="M1237.58,428.39c.39.12,1-5.19,5-7.39a8.12,8.12,0,0,1,3.87-1,1.69,1.69,0,0,0-.08-1.69,1.73,1.73,0,0,0-1.21-.73,11.11,11.11,0,0,0-5.57,3.77C1237.23,424.51,1237.25,428.3,1237.58,428.39Z"/><path class="cls-16" d="M1245.74,447.59c-5.62,8.32-17.4,11.9-21.13,8.63a5.43,5.43,0,0,1-1.23-1.82,5,5,0,0,0,3.47-1.84c1.65-2.41-.93-5.5.5-7.28,2-2.46,7.88,2.25,12.9-.33s5.41-10.13,5.46-10.92a15.76,15.76,0,0,0-.63-5.31,12.87,12.87,0,0,1,3.76,6.47C1250.14,441,1246.79,446,1245.74,447.59Z"/><path class="cls-15" d="M1236,629.5c-.49,1.24-1,2.49-1.59,3.74a108.37,108.37,0,0,1-6.1,11.61c-.22.36-.44.73-.67,1.09s-.28.46-.42.7c-.34.53-.68,1.07-1,1.6s-.8,1.24-1.22,1.86c-.21.32-.43.63-.65,1l-.07.1c-.47.69-1,1.38-1.45,2.07l-.11.16c-.5.68-1,1.36-1.51,2,0,.07-.1.15-.16.22-.44.59-.89,1.18-1.35,1.76-.67.87-1.36,1.73-2.06,2.59-9.36,5.86-19.27,11.75-29.72,17.56-17,9.46-33.39,17.6-48.9,24.62a128,128,0,0,1-16.43.44l-1.28,0-.77,0c-.4,0-.8,0-1.19-.06l-1-.07q-.84,0-1.68-.12l-1.34-.12-.22,0a116.41,116.41,0,0,1-14.64-2.3A391.3,391.3,0,0,0,1236,629.5Z"/><path class="cls-14" d="M1164.59,685a3.93,3.93,0,0,0-3.93-3.93c-2.56,0-4,3.87-3.93,3.93s1-2.26,3-2.65a3.18,3.18,0,0,1,3.36,1.38c.86,1.71-.72,4.22-2,4.22-1,0-2.34-1.79-1.84-2.87.36-.76,1.6-1.15,2-.78.61.52-.46,2.42-.23,2.53s1.94-1.59,1.32-2.76c-.46-.87-1.87-.78-2-.78a2.78,2.78,0,0,0-2.41,1.89c-.47,1.62,1.05,3.49,2.65,3.74C1162.56,689.27,1164.59,687.26,1164.59,685Z"/><path class="cls-14" d="M1149.08,691a3.93,3.93,0,0,0-3.93-3.93c-2.56,0-4,3.87-3.93,3.93s1-2.26,3-2.65a3.18,3.18,0,0,1,3.36,1.38c.86,1.71-.72,4.22-2,4.22-1,0-2.34-1.79-1.84-2.87.36-.76,1.6-1.15,2-.78.61.52-.46,2.42-.23,2.53s1.94-1.59,1.32-2.76c-.46-.87-1.87-.78-2-.78a2.78,2.78,0,0,0-2.41,1.89c-.47,1.62,1.05,3.49,2.65,3.74C1147.06,695.19,1149.08,693.18,1149.08,691Z"/><path class="cls-14" d="M1135.91,697a3.93,3.93,0,0,0-3.93-3.93c-2.56,0-4,3.87-3.93,3.93s1-2.26,3-2.65a3.18,3.18,0,0,1,3.36,1.38c.86,1.71-.72,4.22-2,4.22-1,0-2.34-1.79-1.84-2.87.36-.76,1.6-1.15,2-.78.61.52-.46,2.42-.23,2.53s1.94-1.59,1.32-2.76c-.46-.87-1.87-.78-2-.78a2.78,2.78,0,0,0-2.41,1.89c-.47,1.62,1.05,3.49,2.65,3.74C1133.88,701.27,1135.91,699.26,1135.91,697Z"/><path class="cls-14" d="M1120.42,702.23a1,1,0,0,1,.1.29c-.4,0-.8,0-1.19-.06a1.07,1.07,0,0,0-1-.07q-.84,0-1.68-.12a2.78,2.78,0,0,1,1.74-.81C1118.55,701.45,1120,701.36,1120.42,702.23Z"/><path class="cls-14" d="M1122.57,702.61l-1.28,0a2,2,0,0,0-.21-.67,3.16,3.16,0,0,0-3.36-1.38,4,4,0,0,0-2.36,1.64l-.22,0c.59-1.17,1.81-2.91,3.53-2.91A3.94,3.94,0,0,1,1122.57,702.61Z"/><path class="cls-14" d="M1176.82,678.24a3.93,3.93,0,0,0-3.93-3.93c-2.56,0-4,3.87-3.93,3.93s1-2.26,3-2.65a3.18,3.18,0,0,1,3.36,1.38c.86,1.71-.72,4.22-2,4.22-1,0-2.34-1.79-1.84-2.87.36-.76,1.6-1.15,2-.78.61.52-.46,2.42-.23,2.53s1.94-1.59,1.32-2.76c-.46-.87-1.87-.78-2-.78a2.78,2.78,0,0,0-2.41,1.89c-.47,1.62,1.05,3.49,2.65,3.74C1174.79,682.47,1176.82,680.47,1176.82,678.24Z"/><path class="cls-14" d="M1190.36,671.32a3.93,3.93,0,0,0-3.93-3.93c-2.56,0-4,3.87-3.93,3.93s1-2.26,3-2.65a3.18,3.18,0,0,1,3.36,1.38c.86,1.71-.72,4.22-2,4.22-1,0-2.34-1.79-1.84-2.87.36-.76,1.6-1.15,2-.78.61.52-.46,2.42-.23,2.53s1.94-1.59,1.32-2.76c-.46-.87-1.87-.78-2-.78a2.78,2.78,0,0,0-2.41,1.89c-.47,1.62,1.05,3.49,2.65,3.74C1188.33,675.55,1190.36,673.54,1190.36,671.32Z"/><path class="cls-14" d="M1202.94,663a3.93,3.93,0,0,0-3.93-3.93c-2.56,0-4,3.87-3.93,3.93s1-2.26,3-2.65a3.18,3.18,0,0,1,3.36,1.38c.86,1.71-.72,4.22-2,4.22-1,0-2.34-1.79-1.84-2.87.36-.76,1.6-1.15,2-.78.61.52-.46,2.42-.23,2.53s1.94-1.59,1.32-2.76c-.46-.87-1.87-.78-2-.78a2.78,2.78,0,0,0-2.41,1.89c-.47,1.62,1.05,3.49,2.65,3.74C1200.92,667.25,1202.94,665.24,1202.94,663Z"/><path class="cls-14" d="M1216.64,654.68a3.93,3.93,0,0,0-3.93-3.93c-2.56,0-4,3.87-3.93,3.93s1-2.26,3-2.65a3.18,3.18,0,0,1,3.36,1.38c.86,1.71-.72,4.22-2,4.22-1,0-2.34-1.79-1.84-2.87.36-.76,1.6-1.15,2-.78.61.52-.46,2.42-.23,2.53s1.94-1.59,1.32-2.76c-.46-.87-1.87-.78-2-.78a2.78,2.78,0,0,0-2.41,1.89c-.47,1.62,1.05,3.49,2.65,3.74C1214.61,658.92,1216.64,656.91,1216.64,654.68Z"/><path class="cls-14" d="M1226.2,648.24c.16-.53.25-1.09,0-1.34s-1.68,0-2,.77a2.31,2.31,0,0,0,.86,2.43c-.21.32-.43.63-.65,1a3.12,3.12,0,0,1-1.47-3.26,2.79,2.79,0,0,1,2.41-1.9c.11,0,1.48-.09,2,.75C1226.89,647.17,1226.55,647.71,1226.2,648.24Z"/><path class="cls-14" d="M1228.32,644.85c-.22.36-.44.73-.67,1.09a3.32,3.32,0,0,0-3.1-1c-1.87.36-2.86,2.43-3,2.63,0-.27,1.44-3.92,3.93-3.92A3.93,3.93,0,0,1,1228.32,644.85Z"/><path class="cls-18" d="M556.94,147.22c-.3,2.9-1.32,7-2.33,6.92s-1.85-3.68-1.65-6.92c.24-3.84,2.07-7.72,3.07-7.56S557.25,144.17,556.94,147.22Z"/><path class="cls-19" d="M681.58,146.8c-1.07,2.5-3.41,5.52-4.82,5.08s-1.93-5-.51-8.48c1.18-2.9,3.92-5.77,5.32-5.22S683,143.39,681.58,146.8Z"/><path class="cls-18" d="M977,261.54c.32.46,2.25,3.19,1.52,4s-2.83-.12-4.3-1.18c-3.08-2.24-4.4-6.77-3.42-7.51S975.07,258.85,977,261.54Z"/><path class="cls-20" d="M788.49,192.56l-1.79,16.06-466.7-52v-21.3Z"/><path class="cls-21" d="M1184.32,401.73c-56.15,68.22-148.9,162.85-286.88,238.53-245,134.41-481.28,126-581.23,116.5l.31-131.19c103.81,14.5,318.86,29.64,557.71-69.41,147.63-61.22,252.94-144.75,318.9-206.86Z"/><path class="cls-21" d="M1182.91,416.94a1592.2,1592.2,0,0,1-300.7,277.17c-39.75,28.08-78.87,52.94-116.78,75L315,766l3.51-100.82c101.5,14.91,318.24,32.13,557.71-69.41,145-61.5,247.84-145.12,311.82-206.92Z"/><path class="cls-22" d="M1213.82,218.14C1132.18,209,1027,207.55,909.26,233c-331,71.52-526,304.62-591.25,390.76q.06-127.56.12-255.11C427.9,297.78,620.79,195.06,879.57,164a1301.72,1301.72,0,0,1,331.88,3Z"/><path class="cls-22" d="M1212.45,177.54c-76.49-19.49-181.73-34.87-303.19-17.82C558.5,209,360,488.36,318,550.48l.27-465.57a3874.67,3874.67,0,0,1,541.31,16.6c126,12.72,243.43,30.83,351.46,51.89Z"/><path class="cls-23" d="M629.83,76.77c.12-.23.25-.81.08-.73l-.37.93Z"/><path class="cls-23" d="M629.42,74.74a5.32,5.32,0,0,0-.88,2.08c.43-.87.36-.47.85-1.52.17-.07.15.38,0,.72.12-.23.15.27.4-.31,0-.79-.18-.88-.59-.34A2.28,2.28,0,0,1,629.42,74.74Z"/><path class="cls-23" d="M617.44,68.32l0,.15A.2.2,0,0,0,617.44,68.32Z"/><path class="cls-23" d="M610.74,63.56c.06,0,.14,0,.2-.12A.26.26,0,0,0,610.74,63.56Z"/><path class="cls-23" d="M610.29,61.86a.66.66,0,0,0,0,.1C610.35,61.87,610.35,61.81,610.29,61.86Z"/><path class="cls-23" d="M617.44,68.32l0-.38C617.22,68.22,617.38,68.21,617.44,68.32Z"/><path class="cls-23" d="M626.89,76.47a.65.65,0,0,0,.2-.21l-.15.06Z"/><path class="cls-23" d="M621.05,69.17l.06,0,.21-.35Z"/><path class="cls-23" d="M623.66,70.11a5.8,5.8,0,0,0-.54,1.05,1.25,1.25,0,0,1,.34-.48C623.52,70.53,623.59,70.35,623.66,70.11Z"/><path class="cls-23" d="M627.33,73l.11-.09Z"/><path class="cls-23" d="M619.34,68.17a2.75,2.75,0,0,0,.11-.28A1.9,1.9,0,0,0,619.34,68.17Z"/><path class="cls-23" d="M579.9,4.82l.13-.08C580,4.77,579.9,4.8,579.9,4.82Z"/><path class="cls-23" d="M609.07,59.47v0C609.18,59.46,609.14,59.45,609.07,59.47Z"/><path class="cls-23" d="M596.13,41.71c-.62.49-1.06-.09-1.72.55C594.71,42.12,595.78,42.17,596.13,41.71Z"/><path class="cls-23" d="M626.85,76.34a.27.27,0,0,1-.12,0S626.82,76.36,626.85,76.34Z"/><path class="cls-23" d="M594.41,42.26h0l-.06.06Z"/><path class="cls-23" d="M604.69,55.93a2.49,2.49,0,0,0-.23.29A1.72,1.72,0,0,0,604.69,55.93Z"/><path class="cls-23" d="M606.84,59.8v-.16A.21.21,0,0,0,606.84,59.8Z"/><path class="cls-23" d="M602.35,55c0-.09.09-.17,0-.16l-.06.08C602.35,54.91,602.42,54.9,602.35,55Z"/><path class="cls-23" d="M600.94,53.2l-.11.14.08,0Z"/><path class="cls-23" d="M583.11,10.6a7.37,7.37,0,0,1,.68-.35C583.23,10.48,582.92,10.25,583.11,10.6Z"/><path class="cls-23" d="M627,76c-.08.2-.13.29-.18.32l.09,0A1.25,1.25,0,0,0,627,76Z"/><path class="cls-23" d="M597.14,59.18l-.17-.4A.75.75,0,0,0,597.14,59.18Z"/><path class="cls-23" d="M586.26,27.05l-.11-.08S586.16,27,586.26,27.05Z"/><path class="cls-23" d="M596.1,57.85a1.77,1.77,0,0,0,.33-.55,1.3,1.3,0,0,0-.2.09Z"/><path class="cls-23" d="M583.79,10.24h0Z"/><path class="cls-23" d="M581.1,8.85c.12.29,1.06-.3,1.68-.49.43.25-.68.5-1.16.84.35.11,1.36-.09,1.39.1a1.34,1.34,0,0,1-.44.18c.91-.07.32.71,1.47.62a1.65,1.65,0,0,1-.24.13,13.64,13.64,0,0,1,1.41-.56c.07.14.77,0,.1.34,0-.1-.29,0-.52,0l.36.05c-.93.48-.42-.09-1.15.17.42.18,1.4.25,1.18.59-.94.36-.51-.44-1.26.15l.24-.47c-1.42.78,0-.24-1.51.56-.1.52.67.34.52.89.57-.06.79-.28,1.36-.35,1.17.39-2.31,1.26-.86,1.36.69-.06,1.95-.35,1.39.19l-1.15.18c0,.48,1.68-.16,1.06.52-.46,0-.47-.27-.58-.17-.79.53.7.06.75.31l-1,.29c.26.46,1.1.85,1.4,1.38a1.79,1.79,0,0,0-.91.19c.66.59.19,1.53-.31,2.32l.91.12c0,.06-.37.18-.55.14-.29.32.55-.08.92,0,.09.15-.47.28-.74.23.81.35,1.82,1.13.94,1.78l-.27-.06c-.3.45,1.85.21,1.08.7l-.16-.05c-.27.93.67,1.79-.58,2.63,1.27,0-.46.95,1.3.8-.81.61-1.14.5-1.65,1.28-.06.2,1.13.16,1.34.38l-.92.11,1,.22-1.08.3.26.2a1.06,1.06,0,0,1,.66-.25c.46.3-.54.93-1,1l.87.74a1.55,1.55,0,0,1-.76-.18c1,.33-1,.2-.05.5a2.79,2.79,0,0,1,.74,0,.62.62,0,0,0-.2,1.05h-.64c-.08.65.48,1.29.56,2a1.71,1.71,0,0,1,1.5-.2l-1,.22c.62,0,.34-.27,1.11-.1-.08.28-1.08.33-1.41.23l.38.27a7.11,7.11,0,0,1-.82,0c.62,0-.9.7.17.74L586,33c.11.72.5,1,.65,1.57.83-.13.69.13,1.39.18-.19.47-.77,1.06-.61,1.56.49.28.72,0,1.25,0-.75.17-.57.67-1.17.52a2.79,2.79,0,0,0,1.1,1.4c.29-.15.4-.28.67-.29s-.24.39-.61.45l-.09,0c.66.3.21.93-.15,1.53s-.65,1.2.22,1.33l-.09,0,1,.49c0,.37-.61,0-1,.35,1.46.4.15,1.3,1.21,1.66-2,1.24.78,1.67-.32,2.85l.48-.24c.55,0-.21.32-.27.49.38-.17.38-.37.68-.37a3.32,3.32,0,0,1,.77,2.25,18.37,18.37,0,0,0,.11,2.67c.17.59,2.6-1,1.84.22l-1,.3c1.64.42,1.16,2.14,2.65,2.55-.23.07-.48.23-.54.14-.46.59.49.76,1,.42,0,.18-.42.33-.6.59-.21.44,1.11,0,.6.49a.4.4,0,0,1-.3.07c.38-.07.36.66.95,0-.07.58.77.45.58,1,.87-.38.07.87,1.15.12-1.09.81-.38,1.26.28,1.06-.38.19-.18.45-.69.73.21.23.59.29,1.09-.2-.87,1.49,1.7,0,.36,1.62a10.72,10.72,0,0,1,2.87.83c-1,.92-.71-.56-1.71.45.94.2,2.07-.31,2.39.44,0,.27-.49.34-.7.46.95.13,1,1.14,2,1.05a.75.75,0,0,1-.36.18c.13.06.1.35.5-.11l-.21,0c.44-.8,1.64-1,2-1.39-1.34,1.18.2.76-1.53,2.21a1.33,1.33,0,0,0,.67-.5c0,.18-.1.39-.51.65.59.06.88-.55,1.2-.25a5.67,5.67,0,0,1-.59.5c.54-.3,1.08-.6,1.19-.17-.13.12-.25.33-.33.26.56.32,1.8-.55,2,.3-.95.9-.08.48-.73,1.39l.5,0,.21-.53c.24.22,1-.27,1,.18l-.47.23.62.18,0-.54c.6-.28.81-1.17,1-.67-.14,0,.25.19,0,.83h0c.33-.2.68-.42.71-.06-.15.33-.74,1-.85,1.21.66-.68.76.22,1.48-.51a3.67,3.67,0,0,0-.56.76l.53-.56a1.15,1.15,0,0,1-.34.77c.3.36.66-1.26.77-.47-.07,0-.11.14-.25.19.27.55,1.11.14,1.32.72-.47,1-.5,0-.87.9.71.22,2-.41,2.4.16l0-.17c.87-1.33,0,.94.71.46a2.19,2.19,0,0,0-.42.57c.29.45,1,.11,1.88,0l-.27.32c.07.45.54.53.72.83.26-.33.38-.19.56-.77-.2,2.48,2.08-.36,2,1.71-.09,0-.36.23-.29.26l.78-.06c.23-.66.09-.42.18-1,.25-.34.55-.55.7-.49-.46.3-.45,1-.48,1.43.07-.2.2-.4.28-.6-.17,1.27.61-1.25.72-.3l-.17.32c.24-.1.58-.47.72-.31-.24.77-.32.27-.59.88.28.06,1.09-1.2,1-.37-.19.16-.35.1-.54.26-.11,1,0,.76.14,1v0l.28.57,0-.28c1.1-1.81.79-.08,1.72-1.2-.89,1.05-.34.67-.7,1.51a1.42,1.42,0,0,1,0,.83c.47-.61.15.67.82-.22-.09.28.21.11-.09.78.35-.11.11-.5.26-.84.75-.78.57,1.51,1.63.42.7-.36,1.11-1.26,1.74-1.56a1.58,1.58,0,0,1-.47,1c.12.5.35.48.7.24a1.75,1.75,0,0,0-.17.79c.22,0,.46-1,.59-.48a8.7,8.7,0,0,1-.55,1.06c.32-.18.71-.63,1-.8-.09.51-.37.69-.56,1a1.6,1.6,0,0,0,1.16-1l-.09-.33c.11,0-.15.68-.27.8-.42.54-.26-.37-.18-.66l.23-.12c.33-1.7-.76,0-1.09-.16l.52-1.14-.67.88c0-.33.19-1,.41-1.14-.05-.66-.35.35-.35-.37a.32.32,0,0,1,.08-.2l-.35.28c.13-.23.24-.85.33-.63-.19-.83-1,.65-.83-.3l.06-.06c-.72.2-.35.85-1.15,1.71l.46-2.23-.36.84c0-.05-.15-.16,0-.49-.43.51-.1.39-.43.9,0-.89-.93.07-.49-1.32-.35.61.09.61-.39.94.47-1.5-.45.12-.46-.65.37-.73.46-.23.46-1-.65,1.22-.4-.47-.7-.32-.41,1-.64.23-1.14.42.16-.33-.46-.82-.63-1.34l.08-.16c-.5,1-.76.64-1.11.73a2.54,2.54,0,0,1,.68-1l-.23-.1c-.2.3-.35.44-.55.48L621,69c-.32-.1-1,.61-1.19-.08-.35.68-.59,2.09-1.24,2.35a3.52,3.52,0,0,1,.63-1.13c-.06,0-.28.25-.28.05l.47-.55c0-.37-.35.48-.46.35.26-.53.08-.43.3-.85.06,0,0,.28.18.1a1.36,1.36,0,0,1,0-1c-.13.31-.35.72-.5.73-.33-.11.21-.69.17-1.05-.26.33-.26-.14-.66.65-.09,0,.08-.42.15-.66-.34.28-.77-.28-1,.65v.08l0,0h0c-.93.5-.83-1-1.52-.95l.14-.26c-.47.13-.76-.21-1.29.22-.09-.05.06-.59.28-.87-.34.06-.54.33-.61-.28.49-.31.16-.44.43-.19-.16-.39,0-.83-.71-.32.5-.58.29-.95,0-.84l-.09.59c-.21,0-.31-.15-.41-.29l.6-.8c.1-1.38-2.16,1.07-1.48-.91-.54.48,0,.61-.55,1.2-.2-.28.35-1.67.27-1.72,0-.7-1.16,1-1.31.4-.16.32-.66,1.13-1.14,1.2-.19-.3.56-1.43.89-1.55.08,0,0,.13,0,.23a.6.6,0,0,0,.48-.48l-.24.27c.09-.38-.29-.6.14-1a.54.54,0,0,0-.4.66c0-.64-.49-.39-.61-.92-.07.2-.27.57-.32.52-.21-.72-.62.37-1.05.23.15-.57.87-1,.26-.86,0-.44.55-.77.81-.94-.72.3-.27-.77-.33-1l.33-.1a.28.28,0,0,1-.33-.07l-.37.62c0-.17-.08-.23.11-.46-.39.28-.69,1-1.28,1.3.12-.38-.61,0,0-.77.16.56.58-.75,1-.61-.13,0-.2,0-.2-.2a.39.39,0,0,1,.2-.16c.21-.93-.85.67-1.2.34.4-.36.59-.83.45-.79.14.13-.52.73-.93.91,0-.51-.46,0-.55-.13v.27c-.41.35-.48.2-.75.17.27-.32.34-.07.4-.26-.81.52.27-1.09-.4-.86.14-.37.68-.73.75-1-.75.24.22-.8-.45-.65-.42.58-.28.48-1,.78l.82.09-1,.46c.14.14.61,0,.61.13-.55.28-.41.17-.76.66.55-1-.83.07-.55-.67l1.26-1.24c.24-.87-1.21,0-1.3-.7l-.09.35c-.57.42-.33-.21-.67-.16a3.54,3.54,0,0,0,.74-.93c-.32.3-.27-.34-1.19.4l.4-.71c-.06-.58-1.63.68-1.79.17.58-.3.77-.74,1.32-.8-.09-.12-.1-.3-.42,0,.23-.31-.89.18-.55-.29-.24.11-.74.49-.82.32a1.31,1.31,0,0,1,.23-.18c-.23.18-.49,0-.9.56,1.11-1.51-.94-1,.08-2.33a3.3,3.3,0,0,1-1-.62c.16-.09.24-.17.23-.09.2-.66-1.55.75-1.34,0,.65-.74.58-.08.79-.41,1.58-1.14-.56-.33.19-1.23h.14c.4-.55-.93-.12-1-.55a1.42,1.42,0,0,0,.25-.15,2.43,2.43,0,0,1-2-.23c.72-.27.44,0,1.07-.5-.18-.1-1,.67-1.42.46a4.66,4.66,0,0,1,1.2-1.14l.21.26c.85-.67-.25-.35-.17-.59l.42-.21c-.38-.36-1.45.2-1.62-.34l-.29.21c-1.17.25.48-.53-.43-.41l1-.61a5.43,5.43,0,0,1-1.68-.37,7.62,7.62,0,0,1,2,0,.74.74,0,0,0-.93-.4c.14,0,.44,0,.31.14-.94.18-1.5.08-1.65-.3,2.14-.87.07-1.16,1.64-2.11-1-.32-.12-1.39-.52-2.06-1.59.85-.13-.2-1.84.45-.18-.14-.17-.22-.07-.27l.85-.88c.47-.29.44,0,.83-.1,0-.42.69-.4,1.08-.8-.61.25-.93.15-.76-.14l-.72.56c-1.09-.26,1.34-.92.26-1.18h.6c-.41-.18-.28-1-1.78-.9.19-.1.66-.3.82-.21,0-.69-1.89-1.14-1.13-1.89l.45,0c-.15-.1-.87,0-.47-.3.18,0,.45,0,.46-.11-.17,0-.84-.18-.63-.4l.53,0c.43-.78-1.44-.78-1.83-1.32a2.2,2.2,0,0,0,1.8-1.16l.19,0c0-.82-1.32-1.16-1.94-1.85,1.36-.68.38-1.68,1.08-2.53a1.78,1.78,0,0,1-1.17,0c.24-.21-1-.38.23-.5l0,.07c1.16-.28.81-.61.81-.9l-1.58.14c2.2-1-1.07-1.89.93-2.54-.42-.14-.44-.37-.85-.51l.85-.09a1.66,1.66,0,0,0,0-1.43l.62.06c0-.37-2.48-.17-2.57-.49l1.25-.25c-.09-.62.92-1.42-.3-1.9.19,0,.55,0,.62.05,0-.3.7-1.28-1-.93,1.12-.16,0-.67-.52-.94l.84-.07c-1.1-.14-1.39-.1-1.75-.46.09-.11.65-.19.46,0,.38-.39-.82-.13-.45-.58l.55.06c0-.34-.27-.27-.91-.35-.36-.15.11-.65.84-.83-.46,0-1.1,0-.91-.27a1.07,1.07,0,0,1,.55,0c.48-.66-1.11-.64-.38-1.17a1.57,1.57,0,0,0,.48-.16c.07.45.11.81,0,.79.76-.14.81-.53,1.92-.44-.63-.19-2-.44-1.7-.86l.25-.1.09,0c.06-.1,0-.16-.17-.2.1-.14.18-.23.16-.34.61-.18.25-.49.24-.68-.82.2-.74-.06-1.37.32.05,0,.11,0,.17.12a.19.19,0,0,0,.1.06h-.07a3.75,3.75,0,0,1,.15.43c-.45,0-.83-.11-.42-.41l-1.38.06c1.1-.5,1.61-1.12,2.3-1.36-.61-.43-.67-1.22-2.29-1.12-.24-.09.39-.3.61-.43.18,0,.18.16.42.14-.48-.19-.41-.87-1.49-.61.37-.53,1-.09.71-.56l.34,0c.71-.8-.16-1-.92-1.21s-1.47-.41-.63-1.39a.75.75,0,0,1-.31.28,1.55,1.55,0,0,0-.09-1.08,6,6,0,0,0-.64-.86,1.85,1.85,0,0,1-.44-2.11c.11-.5-.54-.19-1.12-.13l.74-.52-1.1.18c-.93-.07,1.38-2-.24-1.85L584,1.5c0-.28-.75-.46-.15-.83-.11,0-.57.29-.37,0l.38-.28-1,0c0-.6,1.57-1.05,1.19-1.7a2.74,2.74,0,0,0-1.75.52c0,.1-.06.4-.43.69l-.34,0c-1.12.83-2.33,1.61-2.78,2.61l.89-.24-.47.5L579,2.53c-.4.52.11.26.49.13a2.28,2.28,0,0,0-.51.56l1.28-.5c-.42.35-1,.51-1.08.87.6-.23.91-.84,1.4-.85-.42.51-.87.76-.31.62a1.44,1.44,0,0,1-.67.35c.46-.1.41.28,1.08-.06-.56.58.5.4-.62,1.09.3-.13,1-.29,1.18-.18-1.5.57.24.57-1.27,1.37,1.34-.54.93.36,1.79.34-.11,0-.33.1-.28,0,0,.25-.36.51-.54.76a5.65,5.65,0,0,1,2.18-.48c-.9.75-1.31.46-2.25,1,.85-.44,1.06,0,1.73-.43a3.6,3.6,0,0,1-1.06.82c1.35-.59.31.06,1.21-.16-.53.57-1.22.63-.67.74A1.46,1.46,0,0,1,581.1,8.85Zm4.74,6.78h0l-.08-.16Zm.16.68a.75.75,0,0,0,0-.3c.28-.08.58-.11.58,0C586.35,16,586.22,16.17,586,16.31Zm5.39-2.72c.14.09,0,.17-.18.22a.7.7,0,0,0-.14-.19H591A3.42,3.42,0,0,1,591.39,13.59Z"/><path class="cls-23" d="M590.27,13.62s-.06,0-.07,0l-.17.11.27,0Z"/><path class="cls-23" d="M617.46,68.49v0a.52.52,0,0,1,0,.12Z"/><polygon class="cls-23" points="585.75 26.28 585.97 26.26 585.77 26.21 585.75 26.28"/><path class="cls-23" d="M619.85,72.84a.67.67,0,0,0,0,.22A.91.91,0,0,0,619.85,72.84Z"/><path class="cls-23" d="M621.41,73.71l.12.37A1.13,1.13,0,0,0,621.41,73.71Z"/><path class="cls-23" d="M622.53,74.61c.07-.13.11-.23.16-.33h0Z"/><path class="cls-23" d="M603.11,64H603C602.84,64.06,602.95,64.07,603.11,64Z"/><path class="cls-23" d="M609.49,66.6a2.21,2.21,0,0,1-.4.2C609.14,66.92,609.21,67,609.49,66.6Z"/><path class="cls-23" d="M597.16,59.22h0l0,0Z"/><path class="cls-23" d="M608.85,66.62c0,.2.1.23.24.19C609,66.7,609,66.57,608.85,66.62Z"/><path class="cls-23" d="M628,76.91l.05.05a.82.82,0,0,1,0-.13Z"/><path class="cls-23" d="M628.14,76.83l.1-.07S628.18,76.75,628.14,76.83Z"/><path class="cls-23" d="M628.45,76.6l-.21.16C628.29,76.77,628.35,76.82,628.45,76.6Z"/><path class="cls-23" d="M626.42,76l-.12.28A2.06,2.06,0,0,0,626.42,76Z"/><path class="cls-23" d="M625.87,75.9c.1.11.11.73.34.6l.09-.23C626.08,76.68,626.15,75.45,625.87,75.9Z"/><path class="cls-23" d="M625,71.58l.33.38c0-.33.09-.78.31-.78C625.45,70.08,625.5,71.91,625,71.58Z"/><path class="cls-23" d="M623.89,70.67c.27-.06.17-.44.25-.61C623.9,70.28,623.84,70.33,623.89,70.67Z"/><path class="cls-23" d="M615.11,66.42l.41-.65C615.31,65.78,615.37,66,615.11,66.42Z"/><polygon class="cls-23" points="611.4 68.81 611.31 69.31 611.76 68.77 611.4 68.81"/><polygon class="cls-23" points="613.43 63.61 613.55 63.56 613.15 63.64 613.43 63.61"/><path class="cls-23" d="M601.78,53.09l-.72.61C601.26,53.69,602.12,53.07,601.78,53.09Z"/><path class="cls-23" d="M597.3,47.82c.39-.29.58-.6.11-.49C597.42,47.49,597.16,47.8,597.3,47.82Z"/><polygon class="cls-23" points="593.51 27.34 593.84 27.44 593.54 27.2 593.51 27.34"/></g></g></svg>