<svg id="layer_2" data-name="layer 2" xmlns="http://www.w3.org/2000/svg" viewBox="0 0 1366 768"><defs><style>.cls-1{fill:#aa8765;}.cls-2{fill:#99764f;}.cls-3{fill:#8c6a48;}.cls-4{fill:#896745;}.cls-5{fill:#7a5a3d;}.cls-6{fill:#9b7657;}.cls-7{fill:#0a252b;}.cls-8{fill:#0e323f;}.cls-9{fill:#124054;}.cls-10{fill:#ccc497;}.cls-11{fill:#0e3644;}.cls-12{fill:#0c2c35;}.cls-13{fill:#b54e4e;}.cls-14{fill:#967659;}.cls-15{fill:#e2debf;}.cls-16{fill:#ddbb92;}.cls-17{fill:#ceab86;}.cls-18{fill:#8d8d93;}.cls-19{fill:#79797f;}.cls-20{fill:#efefef;}.cls-21{fill:#d3af89;}.cls-22{fill:#c15d5d;}.cls-23{fill:#b55555;}.cls-24{fill:#a34343;}.cls-25{fill:#aa4b4b;}</style></defs><title>fears-blackhole-02</title><g id="blocks"><path class="cls-1" d="M380,677H342l13-13h34Z"/><rect class="cls-2" x="342" y="677" width="38" height="91"/><path class="cls-3" d="M389,664V768h-9V677l1.91-2.76.38-.55,2.12-3.06,2.57-3.71h0Z"/><path class="cls-3" d="M383.44,710.48A64.43,64.43,0,0,1,380,730.57V677l1.91-2.76a216.6,216.6,0,0,0,.74,25.84C383.14,705.19,383.49,706.64,383.44,710.48Z"/><path class="cls-4" d="M380,677v86.6c-7.48,4.17-17.82,3.84-21-.52-3.74-5.08,4.88-12.13,5.54-29.28.38-9.81-2-17.78-3.52-22.64-5-16.54-12-19-10.5-26.82a21.59,21.59,0,0,1,3-7.34Z"/><path class="cls-2" d="M380,677v76.26c-4.24,2.41-8.54,3.45-10.7,1.81-3.47-2.64,1.52-10,1.08-25.42-.17-5.79-.87-5-3.52-22.64-1.88-12.47-2.8-18.78-2.18-22.67a39.09,39.09,0,0,1,2-7.34Z"/><path class="cls-4" d="M380,677v62.77c-1.25,2.48-2,3.61-2.69,3.43-2.06-.5.73-10.31-1.69-25.41-1.64-10.2-3.67-10.5-5.4-21.43-1-6.14-2-12.43-1.1-19.36Z"/><path class="cls-2" d="M380,677v30.3h-.06c-3.53,0-6.4-8.24-6.4-18.4a42.75,42.75,0,0,1,1.53-11.9Z"/><path class="cls-4" d="M356.6,732.54c.23,13.07-8.5,26-14.6,27.69V704.9C348.49,709.15,356.38,720.44,356.6,732.54Z"/><path class="cls-2" d="M350.29,732.54a36.5,36.5,0,0,1-8.29,23V710.86C346.42,716.39,350.14,724.27,350.29,732.54Z"/><path class="cls-4" d="M345,732.31a18.16,18.16,0,0,1-3,9.92V723.31A17.78,17.78,0,0,1,345,732.31Z"/><path class="cls-5" d="M389,664v17.89c-1.41-.58-2.51-4.65-2.51-9.58a27.76,27.76,0,0,1,.49-5.39h0Z"/><path class="cls-5" d="M374.29,758.44a.75.75,0,0,0,.14.12.09.09,0,0,1-.07,0A.75.75,0,0,1,374.29,758.44Z"/><path class="cls-5" d="M385.46,741.13c.31,7.37,3.44,9.54,1.78,14.51-1.34,4-4.66,6.47-7.24,8V715.16c3.13.06,6.43,3.45,7.83,6.72C390.31,727.66,385,731.3,385.46,741.13Z"/><path class="cls-5" d="M374.29,758.44a.75.75,0,0,0,.14.12.09.09,0,0,1-.07,0A.75.75,0,0,1,374.29,758.44Z"/><path class="cls-3" d="M382.14,742.72c.87,3,3,5.29,1.85,7.74-.74,1.61-2.53,2.39-4,2.8V718c5.12.44,6.89,2,7.59,3.38C390.28,726.64,379.54,733.92,382.14,742.72Z"/><path class="cls-5" d="M387.18,713.75c-1.38,7.17-3.26,8.58-6,20.09-.55,2.32-1,4.25-1.2,5.54,0,0,0,0,0,0V677l1.91-2.76.38-.55a23.85,23.85,0,0,0,.3,13.56c1.27,3.67,2.66,4.32,4.14,7.94C389.46,701.89,388.22,708.3,387.18,713.75Z"/><path class="cls-3" d="M384.65,700c-.31,4.49-4.22,7-4.65,7.25V691.47A9.53,9.53,0,0,1,384.65,700Z"/><path class="cls-6" d="M378.2,668.7c-2.39-4.37-11.84-4.1-18.23-2-5.93,2-11.82,6.45-11.12,8.39s8-1.78,20.83.07c3,.43,6.3,1.17,8-.7A5.34,5.34,0,0,0,378.2,668.7Z"/><path class="cls-1" d="M377,668.2c-1.92-3.13-10.06-2.65-15.62-.88-5.16,1.64-10.36,5.09-9.82,6.5s6.94-1.55,17.91-.58c2.53.22,5.38.67,6.93-.76A3.53,3.53,0,0,0,377,668.2Z"/><path class="cls-6" d="M373.82,668.2c-1.4-2.11-7.59-1.63-11.84-.32-3.95,1.21-8,3.67-7.57,4.62s5.3-1.19,13.61-.72c1.91.11,4.07.36,5.28-.64A2.29,2.29,0,0,0,373.82,668.2Z"/><ellipse class="cls-1" cx="369.4" cy="668.49" rx="2.31" ry="0.7"/><path class="cls-2" d="M585.54,721.48l-2.06,21.9-17.17-1.62-23.75-2.24L384.81,724.63a22.14,22.14,0,0,1-.87-2.15,21.38,21.38,0,0,1,2.94-19.75l39.86,3.76,116.58,11,28.85,2.73Z"/><path class="cls-5" d="M392.34,708.7l33,2.86c5.49.48,11,.9,16.48,1.5s11,1.23,16.42,2.05v.1c-5.52-.25-11-.71-16.51-1.16s-11-1.11-16.46-1.7l-32.9-3.56Z"/><path class="cls-5" d="M514.42,731.44q8.14.32,16.27.71c2.71.12,5.43.19,8.13.43s5.41.52,8.09,1v.1c-2.73.11-5.44,0-8.15-.08s-5.41-.4-8.12-.63q-8.12-.66-16.22-1.41Z"/><path class="cls-5" d="M547.72,735.11q3.44.45,6.86,1a34.22,34.22,0,0,1,3.41.57,19.66,19.66,0,0,1,3.31,1.11l0,.1a19.66,19.66,0,0,1-3.48-.22,34.22,34.22,0,0,1-3.37-.76q-3.37-.8-6.72-1.67Z"/><path class="cls-5" d="M501,734.57q3.11,0,6.21.18a27.5,27.5,0,0,1,3.1.17,15.91,15.91,0,0,1,3.05.71v.1a15.91,15.91,0,0,1-3.13.18,27.5,27.5,0,0,1-3.08-.37q-3.08-.4-6.15-.88Z"/><path class="cls-5" d="M386.49,711.37q3.11,0,6.21.18a27.52,27.52,0,0,1,3.1.17,15.92,15.92,0,0,1,3.05.71v.1a15.92,15.92,0,0,1-3.13.18,27.52,27.52,0,0,1-3.08-.37q-3.08-.4-6.15-.88Z"/><path class="cls-5" d="M529.86,717.94q-10.58-.49-21.16-1.06c-3.53-.18-7.06-.3-10.58-.6s-7-.63-10.54-1.15V715c3.54-.05,7.07.11,10.6.25s7,.51,10.56.8q10.56.84,21.11,1.75Z"/><path class="cls-5" d="M555.6,727.36q-5.31-.49-10.61-1.06c-1.77-.18-3.54-.3-5.3-.6a46.94,46.94,0,0,1-5.22-1.15v-.1a46.94,46.94,0,0,1,5.34.26c1.77.17,3.52.51,5.27.8q5.27.83,10.52,1.75Z"/><path class="cls-5" d="M560.61,723.1q-9.1-.35-18.2-.79c-3-.14-6.07-.21-9.1-.47s-6.05-.54-9.06-1v-.1c3-.1,6.08,0,9.12.12s6.06.43,9.08.67q9.08.7,18.16,1.49Z"/><path class="cls-5" d="M443.41,723.23q-8.57-1.16-17.13-2.4c-2.85-.4-5.72-.75-8.55-1.28s-5.66-1.08-8.46-1.82l0-.1c2.89.18,5.75.56,8.61.93s5.68,1,8.52,1.47q8.51,1.51,17,3.1Z"/><path class="cls-5" d="M536.72,728.76q-10.51-.13-21-.35c-3.5-.06-7-.07-10.51-.25s-7-.4-10.49-.8v-.1c3.51-.17,7-.12,10.52-.1s7,.28,10.5.45q10.5.48,21,1.05Z"/><path class="cls-5" d="M495.48,723.25q-10.51-.13-21-.35c-3.5-.06-7-.07-10.51-.25s-7-.4-10.49-.8v-.1c3.51-.17,7-.12,10.52-.1s7,.28,10.5.45q10.5.48,21,1.05Z"/><path class="cls-5" d="M425.27,726q-9.08-.31-18.16-.7c-3-.12-6.05-.19-9.07-.43s-6-.51-9-1v-.1c3-.11,6.07,0,9.09.08s6,.4,9.06.63q9.06.66,18.11,1.4Z"/><path class="cls-7" d="M670.28,605.71c2-3.78.55-8-2.23-9.48-4-2.07-9.48,2.54-9.23,5.08C659,603.52,663.69,605.49,670.28,605.71Z"/><path class="cls-7" d="M455.78,693.91c-2.82,4.16-3.21,7.29-2.63,9.65,2.94,11.9,34.88,21,54.56,7.86,8.67-5.8,12.7-14.43,14.56-19.65Z"/><path class="cls-8" d="M827,367c-9.22-1.44-13.82,35.36-37.38,41.43-6.66,1.72-13.67.67-19.62,6.57-3.46,3.43-2.5,5.18-8,14-5.77,9.25-8.77,10.45-9,15-.25,5,3,10.47,7,13,12.83,8.19,39.55-10.06,54-25,8-8.29,20.79-21.7,21-41C835.1,381.75,832.44,367.85,827,367Z"/><path class="cls-9" d="M767.69,428.89c3.87,6.67,30.57,2.42,47.55-12.49,3.22-2.83,16.1-14.14,16.78-31.41.06-1.6.76-16-5.28-18.36C822,364.81,815.67,371.12,802,386,777.81,412.33,765.76,425.57,767.69,428.89Z"/><path class="cls-8" d="M713.82,336.08c-8.23-.47-15.74,16.11-29.63,46.79-5.83,12.88-3.51,10.69-7.71,19-3.08,6.08-5.22,9.29-4.48,13.57.65,3.73,3.77,8.29,7.91,9.1,5.61,1.11,9.37-5.44,23.12-17.29,11.48-9.89,11.44-7.55,15.43-12.33a45,45,0,0,0,9.37-36.45C726.35,350.55,721.22,336.5,713.82,336.08Z"/><path class="cls-9" d="M682,390.55c3.93,4.61,22.11-.88,31.58-12.74,8-10.06,8.63-23.16,7.73-28,0-.15-.08-.44-.16-.85-1-5.21-4.21-12.1-7.35-12.84s-7.43,4.81-17.44,22.58C685.35,378.22,679.88,388.05,682,390.55Z"/><path class="cls-10" d="M596,575c-2.07,11.23-11.36,19.47-22,20a23.85,23.85,0,0,1-22-13c2.06,47.45,40.21,76.4,69,71a42.72,42.72,0,0,0,18.77-9C619,630.72,601.73,606.54,596,575Z"/><path class="cls-9" d="M783.34,454.5c-.51,13.11-4,65.12-45.66,107.39-26.65,27-57.93,39-84.09,43.91a178.58,178.58,0,0,1-54.51,2q-21.14-50.16-42.29-100.32A683.46,683.46,0,0,1,628,439.74c15.89-13.08,31.47-24.68,46.41-35a28,28,0,0,1,28.37,12.63c-13,26.78-15.61,38.47-14.26,43.29A4.18,4.18,0,0,0,690,463c2.14,1.62,6.09.61,23.1-8.53,15-8.07,27.19-15.48,36-21.08a65.62,65.62,0,0,1,34.28,21.11Z"/><path class="cls-8" d="M670.31,605.67a378.41,378.41,0,0,1-62.84,29.41c-25.83,9.31-45,16.23-70.34,16.76C513.72,652.32,473,653,449,623c-18.47-23-25.09-66.79-6.79-87.64C466.36,507.84,521.84,533.24,560,495a80.7,80.7,0,0,0,15-21,170,170,0,0,1,45,32,171.88,171.88,0,0,1,41.62,67.29c0,3.42,0,9,0,15.95,0,8.27-.13,12.06,2.55,14.44A9.15,9.15,0,0,0,670.31,605.67Z"/><path class="cls-11" d="M783.34,454.5c-.51,13.11-4,65.12-45.66,107.39-26.65,27-57.93,39-84.09,43.91q1.44-5.61,2.86-11.29,2.67-10.69,5.16-21.22a144.18,144.18,0,0,0,30.93-8.62c12.4-5,47.11-19.48,67.84-56.61,12.91-23.12,15.48-45.91,15.55-61A65.77,65.77,0,0,1,783.34,454.5Z"/><path class="cls-12" d="M670.31,605.67c-21.67,12.38-34,18.16-41.39,21.12-5.43,2.18-10.81,3.89-18.23,8.39-5.2,3.15-6.36,4.62-10.54,6-6.38,2.12-8.38.27-16,2.06-2,.46-5.54,2.05-12.68,5.11-11.94,5.11-12.44,5.87-15.56,6.51-4.15.84-10.37.92-18.8-3l-1.33-.3-1.33-.32a29.58,29.58,0,0,1,1.08-4.68,32.52,32.52,0,0,1,2.7-5.87c3.67-6.13,27.12-29.59,31-26.05,2.75,2.5-7.43,15.62-4.55,18,1.74,1.42,7.5-1.66,11.16-6,5.8-6.87,5.42-15.8,6.2-15.71.56.06.55,4.69.83,14.05.2,6.85.31,7.93.83,8.06,1.43.35,5.47-6.72,6.41-14.67.71-6-.66-10.09.21-10.33,1-.29,3.93,5.14,5.58,11,1.84,6.49.75,8.64,2.27,9.92,3.92,3.32,17.71-5.48,29.37-15.4a166.6,166.6,0,0,0,34.06-40.17,66,66,0,0,1,1.07,11.23c.06,6-1.1,8.46,0,12.08C663.43,599,665.25,602.4,670.31,605.67Z"/><path class="cls-11" d="M668.21,502.06a24,24,0,0,1,16.38,6.45,23.52,23.52,0,0,1,6.71,12.36c15.8-8,23.21-21.12,20.14-30.08-2.25-6.58-9.5-9-9.88-9.15C691.34,478.35,677.24,486.12,668.21,502.06Z"/><path class="cls-13" d="M694,490c-3.44,2.75-8.56,6.66-15,11-31.94,21.52-61.39,29.77-77,34a291.36,291.36,0,0,1-44.06,8.36c-7.2.79-14.86,1.37-22.94,1.64l-8-1.85C437,522,416.64,506.09,417,495c.1-3,1.8-5.57,4.81-8,10.35-8.25,36.18-14.82,65.19-34a211,211,0,0,0,34.52-28.61c20.58-21.07,34.7-44,44.48-63.39q-4,22-8,44a68.49,68.49,0,0,0,27-1c22.79-5.53,35.83-21.42,40-27a84,84,0,0,1-22,53,82,82,0,0,1,64-1,51.9,51.9,0,0,0-33,29,49,49,0,0,0,13,2,51.63,51.63,0,0,0,28-8,35,35,0,0,1-28,35,86.2,86.2,0,0,0,47,3Z"/><rect class="cls-14" x="874" y="718" width="16" height="50"/><rect class="cls-3" x="884" y="718" width="8" height="50"/><path class="cls-1" d="M931.11,768h-32.4L863,712V688h13Z"/><path class="cls-8" d="M424,607c-28.69,29.61-101.74-12-117-31a47.85,47.85,0,0,1-4.75-7.48c-8.23-16.37-6.39-37.9.75-40.52,2.23-.82,7.32,1,15.68,7.12A91.85,91.85,0,0,0,331,543c17.17,8.93,33.89,8.4,48.88,6,20.91-3.31,38.44-10.21,49.12,0C441.79,561.2,438.55,592,424,607Z"/><path class="cls-12" d="M379.88,549l7.33,22.64c-27.45,3.13-38.58-1.84-43.55-7.35-1.46-1.62-6.88-8.28-11.44-7.06-1.85.49-2.31,2-6,4-3.25,1.78-6.7,2.75-7,2.14s4-2.72,5.72-7.66c.57-1.6.93-3.67.34-4-.75-.39-2.18,2.46-5.44,4.5-4,2.51-8.47,2.26-8.58,1.84s5.7-.93,8.58-5.41a9.92,9.92,0,0,0,1.49-4.78c.14-4.51-3.49-9-9-11.45l3.19-.68q1.62-.33,3.28-.64c4.85,0,7.35,1.54,8.74,2.95,1.63,1.64,1.39,2.82,3.12,4,2.54,1.66,4.66.19,8.21,1.12a13.25,13.25,0,0,1,6,3.91C347.74,549.78,356,551.93,379.88,549Z"/><path class="cls-1" d="M594,681H556l13-13h34Z"/><path class="cls-3" d="M603,668V768h-9V681l.31-.44,2.36-3.42c1.44-2.09,2.89-4.17,4.33-6.25Z"/><path class="cls-15" d="M673,635a28.87,28.87,0,0,1-23-22c-.49,3-3.58,19.71-19,29.81-13.45,8.81-31.16,9.21-46,1.19a84.4,84.4,0,0,0,24,13c6.7,2.31,35.14,11.74,65-3,32.94-16.26,41.78-49.15,43-54C709.79,624.11,689.81,637.87,673,635Z"/><path class="cls-16" d="M494.71,692.52c.06,5.33-3.7,12.29-8.53,21.23-1.59,3-1.38,2.07-4.49,7.47-2,3.45-3.34,6-4.49,7.89-1.56,2.53-2.72,3.76-4.48,4.07s-3.68-.25-4.48-1.49c-1.09-1.69.18-4.52,1.5-7.48.91-2,1.6-2.91,1.49-3s-5.24,3.57-6,9c-.59,4.37,1.63,7.69,0,9a3.08,3.08,0,0,1-3,0c-3.42-1.6-3-8.23-3-9,.36-5.25,3.19-8.85,3-9s-2.92,2.8-4.48,7.48c-2.06,6.18-.44,10.59-3,12a3.44,3.44,0,0,1-3,0c-3.35-1.62-3.52-9.29-1.5-15,2.09-5.85,6.22-8.74,6-9s-7.49,3.63-9,10.46c-.86,4,.54,7.72-1.49,9a3.17,3.17,0,0,1-3,0c-3.34-1.74-2.82-9.82-1.49-15,1.93-7.49,6.59-12.47,9-14.94,4.83-5,6.42-4.21,10.47-9,5.15-6.06,3.93-9,7.47-12,6.64-5.57,21.45-4.06,25.41,3A8.57,8.57,0,0,1,494.71,692.52Z"/><path class="cls-17" d="M494.71,692.52c.06,5.33-3.7,12.29-8.53,21.23-1.59,3-1.38,2.07-4.49,7.47-2,3.45-3.34,6-4.49,7.89a15.07,15.07,0,0,1-.49-4.1c.12-5.51,3.31-7,6.49-14.06,4.15-9.19,2.07-14.08,6.59-17A9.25,9.25,0,0,1,494.71,692.52Z"/><path class="cls-8" d="M549.27,644.68c-.76,1.4-1.51,2.85-2.27,4.32-16.43,32-20.91,55.29-36,57-3.5.4-6.18-.53-9.2-1.93-3.47-1.61-7.09-2.92-10.53-4.58-3.18-1.54-13.4-6-25.31-5.39a43.54,43.54,0,0,0-11.62,2.27,50,50,0,0,1,9.76-12A49,49,0,0,1,475,677c16-8.33,15.44-63.33,39-85,24.65-22.67,67.15-25.53,75-13C594.91,588.45,573.09,600.23,549.27,644.68Z"/><path class="cls-18" d="M1048.52,656l.07-.12-.09-.06Z"/><path class="cls-19" d="M624.77,623l.23.14v-.32Z"/><path class="cls-10" d="M541,325a22.06,22.06,0,0,0-38,14c-5.25-18.72-13.63-32.55-23-42.89l-.53-.58.53-.34c10-6.39,19.62-9.68,22-10.19C511.62,282.94,528.67,299.35,541,325Z"/><path class="cls-15" d="M451,285c-17.52,6.51-28.41,15.21-28,16s14.25-9.45,29-6c7,1.63,12.22,5.87,16,10,1.9-2,13.31-13.44,31-13,22.42.55,34.25,19.73,35,21-2.43-5.09-13.09-25.9-36-33C480.37,274.53,464.75,279.89,451,285Z"/><path class="cls-2" d="M1366,768H923l-60-80h384l66.52,44.72,20.15,13.55Z"/><path class="cls-16" d="M541.69,581.51A134.84,134.84,0,0,1,532,604c-5.71,10.9-20,38.16-50.52,47.38A67.59,67.59,0,0,1,465,654.2a72.71,72.71,0,0,1-7.54-.05c-13.41-.79-24.92-5.07-33.49-8.15-7.48-2.69-26.15-9.39-41.58-22.84-8.09-7-15.3-16-19.54-27.1-15.15-39.84,11.29-98.64,61.64-115.44,49.54-16.52,105.83,14,118.6,55.32C548.22,552.44,545.76,568.67,541.69,581.51Z"/><path class="cls-20" d="M485,589.66c-.24,15.14-19.13,23.68-32,24.3h0c-.53,0-1,0-1.56,0a32.65,32.65,0,0,1-5.42-.45,36.48,36.48,0,0,1-7.18-2c-.15-.25-.32-.54-.51-.89s-.37-.67-.57-1.07c-.45-.88-.94-1.93-1.42-3.15-.16-.41-.32-.84-.47-1.29a33.51,33.51,0,0,1-1.12-4l-.15-.72a29.36,29.36,0,0,1,0-11.52c2-9.75,10.18-23.57,24.51-24C473.19,564.61,485.19,577.44,485,589.66Z"/><path class="cls-21" d="M465,654.2a72.71,72.71,0,0,1-7.54-.05c-13.41-.79-24.92-5.07-33.49-8.15-7.48-2.69-26.15-9.39-41.58-22.84a45.36,45.36,0,0,1-1.42-15c.86-10.42,5.87-19.89,7.77-19.57s-.48,11.36,5.19,15.83c4.14,3.28,11,1.75,17-.57a57.34,57.34,0,0,0,53.24,44C464.46,650,464.75,652.09,465,654.2Z"/><path class="cls-20" d="M510.6,559.63c-7.76-2.18-13.74-11.81-11-20.22s13-10.86,19.55-10.24a22.22,22.22,0,0,1,13.55,6.78,20.85,20.85,0,0,1-1,9C529,552.56,520.24,562.34,510.6,559.63Z"/><ellipse class="cls-8" cx="473" cy="583" rx="6" ry="12" transform="translate(-249.72 379.79) rotate(-35.24)"/><ellipse class="cls-8" cx="520.35" cy="538.84" rx="4.23" ry="8.57" transform="translate(-215.56 399.02) rotate(-35.24)"/><path class="cls-13" d="M481,515a107.51,107.51,0,0,0,32,7,106.24,106.24,0,0,0,13,0c-2,5.21-8,18.29-22,26-18.13,10-42.26,6.88-61-8a55,55,0,0,0,28,25,103.5,103.5,0,0,1-27,8,105.36,105.36,0,0,1-48-4,40.28,40.28,0,0,0,5,24c-1.41-.26-6.74-1.07-10,2-5.44,5.13-2.51,18.6,5,21,5,1.61,10.2-2.37,11-3a33.28,33.28,0,0,0,2,13c2.17,5.76,5.51,9.4,15,20a84,84,0,0,1-29.75-5.42A64.66,64.66,0,0,1,375,629c-29.6-25.9-25.55-72-15-99,.63-1.62,1.92-4.9,4-9.11,5.78-11.71,17.72-30.61,39-40.89,20.24-9.77,24.81-.11,66-11,26.62-7,42-15.65,53-29a72.34,72.34,0,0,0,7-10.24c.35-.63.67-1.22,1-1.76a39.74,39.74,0,0,1-22,47,39.37,39.37,0,0,0,42-12c1.56-1.83-13.64,38.22-47,49A64.25,64.25,0,0,1,481,515Z"/><path class="cls-13" d="M434.7,601.21l-.15-.72c.14-.16.29-.33.45-.49a10.63,10.63,0,0,1,6-3l-2.86,1-.14,0C436.84,598.4,435.77,599.6,434.7,601.21Z"/><path class="cls-13" d="M440.75,605.5,443,604l6-2-5,2-.75.5L441,606l-2,1-1.25-.25-1.46-.29c-.16-.41-.32-.84-.47-1.29A11.78,11.78,0,0,0,439,606h1Z"/><path class="cls-13" d="M446,608l-5,2-2.72.68c-.17-.32-.37-.67-.57-1.07L442,609l4-2,1-1,2-2Z"/><path class="cls-13" d="M453,614h-1.61a32.65,32.65,0,0,1-5.42-.45,1,1,0,0,1,.45-.17A.53.53,0,0,0,447,613h5v-3l1,4S453,614,453,614Z"/><polygon class="cls-22" points="501.05 551.46 505.43 550.29 505.32 550.38 507.5 547.5 505.68 550.62 505.65 550.68 505.57 550.71 501.37 552.4 501.05 551.46"/><polygon class="cls-22" points="503.85 555.68 505.22 553.36 505.3 553.23 505.4 553.2 508.47 552.41 508.43 552.43 509.5 551.5 508.57 552.57 508.56 552.58 508.53 552.59 505.6 553.8 505.78 553.64 504.75 556.12 503.85 555.68"/><polygon class="cls-22" points="516.56 559.69 517.05 556.36 517.56 559.69 516.56 559.69"/><path class="cls-17" d="M500.32,580c-1.27-2.57.7-6.36,4-8.5,3.8-2.43,8.71-2.3,9.94.79a14.16,14.16,0,0,1-14,7.71Z"/><path class="cls-23" d="M541.69,581.51A134.84,134.84,0,0,1,532,604a153.54,153.54,0,0,1-7.8,13.5c-8.09,12.3-21.47,27.46-42.72,33.88a68.47,68.47,0,0,1-24,2.77c-4.94-3.54-8.85-8.25-9.42-13.41A6.18,6.18,0,0,1,448,640c-.31-6.31,4.56-11.52,9.22-15.62,1-.84,1.89-1.63,2.78-2.38a52.87,52.87,0,0,1,5.49-4.07c.91-.59,1.8-1.11,2.68-1.6a46.3,46.3,0,0,1,9.63-3.91c1.42-.41,2.82-.77,4.21-1.12a82.18,82.18,0,0,0,9.8-2.8,37.38,37.38,0,0,0,3.74-1.64A40.73,40.73,0,0,0,503,602q1.26-1,2.34-2c.72-.67,1.38-1.33,2-2a71.52,71.52,0,0,0,7.49-10,27.08,27.08,0,0,1,3.18-4,14.28,14.28,0,0,1,7-4c.54-.14,1.09-.26,1.66-.36a24.13,24.13,0,0,1,4.38-.36,26.65,26.65,0,0,1,9.23,1.64C540.76,581.1,541.23,581.3,541.69,581.51Z"/><path class="cls-20" d="M463,627c-1.66.57-4.27-.7-5.78-2.62,1-.84,1.89-1.63,2.78-2.38a52.87,52.87,0,0,1,5.49-4.07C466.43,622.66,465,626.31,463,627Z"/><path class="cls-20" d="M474.5,621.16c-2.16.53-5.55-2-6.33-4.83a46.3,46.3,0,0,1,9.63-3.91C478.29,617.18,476.56,620.66,474.5,621.16Z"/><path class="cls-20" d="M488.5,617.16c-2.41.59-6.38-2.66-6.49-5.86a82.18,82.18,0,0,0,9.8-2.8C492.27,613.22,490.55,616.66,488.5,617.16Z"/><path class="cls-20" d="M504.28,609.8c-2.35,1.22-7.1-.31-8.73-2.94A40.73,40.73,0,0,0,503,602q1.26-1,2.34-2C507.42,604.57,506.5,608.64,504.28,609.8Z"/><path class="cls-20" d="M515.78,599.41c-2,1.33-6.28.58-8.44-1.43a71.52,71.52,0,0,0,7.49-10C518.47,592.9,518.12,597.88,515.78,599.41Z"/><path class="cls-20" d="M525.86,588.68c-2.24,1.34-7.39-1.2-7.85-4.7a14.28,14.28,0,0,1,7-4c.54-.14,1.09-.26,1.66-.36C528.22,584,527.57,587.66,525.86,588.68Z"/><path class="cls-20" d="M540.27,580.92c-.76,2.65-2.2,4.34-3.62,4.55-2.31.35-5.56-3-5.61-6.19A26.65,26.65,0,0,1,540.27,580.92Z"/><polygon points="526.15 520 487.5 521.5 524.48 510.14 526.15 520"/><path class="cls-16" d="M325.59,528.06c-5.51,7.91-2.65,12.44-7,17a15.28,15.28,0,0,1-10,4.29,16.14,16.14,0,0,1-10.53-2.83c-7.77-5.7-4.52-16.73-11.46-27.83-.62-1-2.36-3.65-1.6-5.85.6-1.73,2.72-3.08,4.2-2.52,1.7.65,1.48,3.4,4.27,5.53.33.25,1.5,1.15,1.9.78.24-.22.22-.94-1.49-4.85-2-4.64-2.69-5.21-2.61-6.74.12-2.26,1.78-4.55,3.07-4.4,1.12.13,1.37,2,3.39,5.64,1.27,2.28,3.6,5.86,4.26,5.53.38-.19.3-1.66-1.55-12.91-.35-2.15-.64-3.9.29-5.07a3.4,3.4,0,0,1,4.45-.54c1.26,1,1.29,2.79,1.6,5.85.39,4,1.42,11.75,2.32,11.81.65.05,1.52-3.87,1.83-7.27.45-4.94-.43-7.19.82-8.15s3.57-.15,4.68,1.45.4,3.25.07,8c-.36,5.2-.62,8.91,1.31,10.92a6,6,0,0,0,4.68,1.45c3.79-.24,5-3.58,7.76-3a4.64,4.64,0,0,1,2.39,1.49,3.33,3.33,0,0,1,.63,1.17C334.11,520,329.44,522.53,325.59,528.06Z"/><path class="cls-24" d="M528,455a40.48,40.48,0,0,1-20,20,55.81,55.81,0,0,0,18-25,54.68,54.68,0,0,0,3-20.24c.35-.63.67-1.22,1-1.76A40.32,40.32,0,0,1,528,455Z"/><path class="cls-24" d="M481,515a116.57,116.57,0,0,0,69-52,68.15,68.15,0,0,1-23,37C507.73,515.7,486.24,515.26,481,515Z"/><path class="cls-24" d="M473.15,553.25A57.95,57.95,0,0,0,526,522a47.21,47.21,0,0,1-52.85,31.25Z"/><path class="cls-24" d="M396,569a149.07,149.07,0,0,0,75-4,91.56,91.56,0,0,1-75,4Z"/><polygon points="404.5 580.5 451.5 551.5 410.5 588.5 404.5 580.5"/><path class="cls-24" d="M394.25,640.58A64.66,64.66,0,0,1,375,629c-29.6-25.9-25.55-72-15-99,.63-1.62,1.92-4.9,4-9.11a125.53,125.53,0,0,0-2.71,54.24A127,127,0,0,0,394.25,640.58Z"/><path class="cls-24" d="M566,361a320.94,320.94,0,0,1-13,41.46c-2.54,6.51-5.18,12.68-7.88,18.5A69.48,69.48,0,0,0,566,361Z"/><path class="cls-24" d="M625,377a102.8,102.8,0,0,1-22,53,50.3,50.3,0,0,0,22-53Z"/><path class="cls-24" d="M603,430a75.45,75.45,0,0,1,21.68-6.74A78.21,78.21,0,0,1,667,429a103.91,103.91,0,0,0-39.43-4.23A102.86,102.86,0,0,0,603,430Z"/><path class="cls-24" d="M630.1,456.34a70.63,70.63,0,0,0,17.33,1.82A71.48,71.48,0,0,0,675,452c-1.7,1.76-10.76,10.82-24.94,10.83A34.62,34.62,0,0,1,630.1,456.34Z"/><path class="cls-24" d="M647,487a86.2,86.2,0,0,0,47,3,49.87,49.87,0,0,1-47-3Z"/><path class="cls-17" d="M305.47,535.91c-.56-.07-1.51-5.88,1.35-10.82a15.16,15.16,0,0,1,7.44-6.22,32,32,0,0,0-5.41,7.57C306.11,531.81,306,536,305.47,535.91Z"/><path class="cls-17" d="M325.59,528.06c-5.51,7.91-2.65,12.44-7,17a15.28,15.28,0,0,1-10,4.29,25.79,25.79,0,0,0,8.75-8.26c5.28-8.28,4.43-18.52,10.11-21.11,0,0,4.41-2,5.19-4a3.33,3.33,0,0,1,.63,1.17C334.11,520,329.44,522.53,325.59,528.06Z"/><path class="cls-12" d="M549.27,644.68c-.51.92-1.33,2.43-2.27,4.32-4.31,8.71-4.74,12.77-8.45,20.66-2.46,5.24-2.41,3.73-4.74,8.79-3.62,7.84-3.5,10.89-7.25,15.76-2.19,2.84-2.33,1.93-5.44,5.72-4.35,5.3-4.57,7.68-7.67,10.18a16.78,16.78,0,0,1-9.4,3.45,5.64,5.64,0,0,0,1.59-5.72,5.93,5.93,0,0,0-3.84-3.76c3.15-1.32,7-3.39,7-6,.12-4.77-11.9-8.18-11.33-9.94.35-1.07,5.1-.91,9.48.46,6,1.9,9.13,5.42,9.71,4.85s-1.9-5.31-6.24-9c-8.9-7.6-20.38-6.56-20.34-6.93s14.94-2.79,26.12,5.78c4.79,3.67,5.1,6.44,7.4,6.24,6.36-.56,5-21.81,20.69-39.77A57.58,57.58,0,0,1,549.27,644.68Z"/><path class="cls-11" d="M688.55,460.68A41.21,41.21,0,0,1,683,437c1.06-13.64,8.82-22.76,13.13-26.85a28.65,28.65,0,0,1,6.63,7.26C689.78,444.17,687.2,455.86,688.55,460.68Z"/><rect class="cls-2" x="556" y="681" width="38" height="87"/><path class="cls-4" d="M589.31,768H566.86a41.44,41.44,0,0,1-1.28-7.69c-.55-8.15,2.22-8.55,3.54-19.81,2.28-19.42-4.91-27,1.31-37.79,2.29-4,6.43-8.46,9.12-7.64,3,.92,2.06,8.21,3.93,18.08,3.15,16.64,5.23,19.75,6.5,27.35A78.09,78.09,0,0,1,589.31,768Z"/><path class="cls-2" d="M586,768H570.23a49.61,49.61,0,0,1-.92-10.3c.14-7.53,2.16-9.33,4.63-20.28,4.16-18.43,2.62-31.9,3.57-31.92s.35,11.93,4.1,28.9c2.82,12.74,4.92,14.13,5.22,22A53.59,53.59,0,0,1,586,768Z"/><path class="cls-4" d="M582.55,764.41c0,1.24,0,2.44-.13,3.59H574c-.09-1.15-.13-2.35-.13-3.59,0-8.34,2-15.1,4.34-15.1S582.55,756.07,582.55,764.41Z"/><path class="cls-4" d="M579.63,681c-2.87,3.46-10.29,6.91-14.66,17.08-3.25,7.54-2.43,13.24-5.73,14.18a4.3,4.3,0,0,1-3.24-.56V681Z"/><path class="cls-2" d="M570.48,681a31.41,31.41,0,0,0-8.22,8.24c-3.48,5.08-4.52,9.59-6.26,11.65V681Z"/><path class="cls-4" d="M563,681a30.91,30.91,0,0,0-5.14,5.83,35,35,0,0,0-1.89,3.11V681Z"/><path class="cls-5" d="M600.72,723.89c-.53,9.85-2.22,11.41-3.39,11.77a4,4,0,0,1-3.33-1V681l.31-.44,2.36-3.42a236.68,236.68,0,0,0,2.79,24.43A90.5,90.5,0,0,1,600.72,723.89Z"/><path class="cls-3" d="M597.89,721.27c-.22,1.31,0,4-1.57,6.76a12,12,0,0,1-2.32,2.91V681l.31-.44c.39,4.63,1,10.73,2.32,18.39C598,706.85,599.32,712.82,597.89,721.27Z"/><path class="cls-5" d="M595.5,719.53A57.46,57.46,0,0,1,594,726v-30.3l.24,1.46C595.56,705.1,596.94,711.08,595.5,719.53Z"/><path class="cls-5" d="M603,734.58V768h-7c.22-5.07,2.65-13.24,2.85-24.23,0-1.65.06-5.87,2.9-8.28A8.91,8.91,0,0,1,603,734.58Z"/><path class="cls-3" d="M603,739.66V768h-4.21c.69-5.08,2.41-12.3,2.58-21.49C601.39,745.16,601.41,742.06,603,739.66Z"/><path class="cls-5" d="M603,668v18c-.76,1.36-1.49,2.14-2,2-1.28-.27-.81-7.11-.5-11.61.09-1.25.23-3.35.46-5.5Z"/><path class="cls-6" d="M596.74,672c.5,2.53-7.71,7.38-16.12,8-7.19.53-15.4-2-15.47-4.48-.08-2.84,10.24-5.73,18.61-6C584.39,669.52,596.17,669.18,596.74,672Z"/><path class="cls-1" d="M592.12,672.39c.38,1.92-5.86,5.61-12.25,6.08-5.47.4-11.7-1.5-11.76-3.4-.06-2.16,7.78-4.36,14.14-4.58C582.74,670.48,591.69,670.21,592.12,672.39Z"/><path class="cls-6" d="M586.14,673.09c.26,1.29-3.93,3.76-8.22,4.08-3.67.27-7.86-1-7.89-2.28,0-1.45,5.22-2.92,9.49-3.07C579.84,671.8,585.85,671.62,586.14,673.09Z"/><path class="cls-1" d="M575.52,674.26c-.12-.64,2-1.85,4.08-2,1.81-.12,3.88.52,3.89,1.15s-2.59,1.43-4.7,1.49C578.63,674.91,575.66,675,575.52,674.26Z"/><path class="cls-4" d="M426.74,706.49a94.91,94.91,0,0,0-42.8,16,21.38,21.38,0,0,1,2.94-19.75Z"/><path class="cls-25" d="M524.2,617.5c-8.09,12.3-21.47,27.46-42.72,33.88a68.47,68.47,0,0,1-24,2.77c-4.94-3.54-8.85-8.25-9.42-13.41,6.29-5.32,19.48-8.5,36.58-7.53a45.72,45.72,0,0,1,20.21-13.69A45.2,45.2,0,0,1,524.2,617.5Z"/><path class="cls-4" d="M867.61,698a56.43,56.43,0,0,1,.5,8,55.77,55.77,0,0,1-.5,8,55.77,55.77,0,0,1-.5-8A56.44,56.44,0,0,1,867.61,698Z"/><path class="cls-4" d="M872.08,703.21a56.43,56.43,0,0,1,.5,8,55.77,55.77,0,0,1-.5,8,55.78,55.78,0,0,1-.5-8A56.44,56.44,0,0,1,872.08,703.21Z"/><path class="cls-4" d="M876.42,710a56.43,56.43,0,0,1,.5,8,55.77,55.77,0,0,1-.5,8,55.77,55.77,0,0,1-.5-8A56.44,56.44,0,0,1,876.42,710Z"/><path class="cls-4" d="M882,735.51a81,81,0,0,1-.5-9.55,80,80,0,0,1,.5-9.55,80,80,0,0,1,.5,9.55A81,81,0,0,1,882,735.51Z"/><path class="cls-4" d="M888.79,745.84a81,81,0,0,1-.5-9.55,80,80,0,0,1,.5-9.55,80,80,0,0,1,.5,9.55A81,81,0,0,1,888.79,745.84Z"/><path class="cls-4" d="M897.05,738.43a81,81,0,0,1,.5,9.55,80,80,0,0,1-.5,9.55,80,80,0,0,1-.5-9.55A81,81,0,0,1,897.05,738.43Z"/><path class="cls-4" d="M906.74,751.48a60.74,60.74,0,0,1,.5,8.26,60,60,0,0,1-.5,8.26,60,60,0,0,1-.5-8.26A60.75,60.75,0,0,1,906.74,751.48Z"/><path class="cls-4" d="M959.27,768c-47.94-39.52-55.14-54.81-51.72-61.18,5.62-10.45,39-3.82,51.27-1.35,35.31,7.09,53.14,20.61,87.52,36.39A455.74,455.74,0,0,0,1119.41,768Z"/><path class="cls-2" d="M971.23,768c-36.27-36.24-40.71-49.28-37.42-54.27,5.36-8.11,35,2.66,38.33,3.87,20.12,7.29,27.28,16.28,51,30.78a300.26,300.26,0,0,0,37.65,19.45Z"/><path class="cls-4" d="M976.63,768c-15.71-25.67-17-33.91-14.47-36.17s8.57.87,15.4,4.22c12.67,6.22,17.4,13.2,27.83,19.38a200.52,200.52,0,0,0,23.6,12Z"/><path class="cls-2" d="M981.67,768c-2.88-12.38-1.2-14.73-.09-15.3,2-1,5.16,2.24,13.4,7.83,5.24,3.55,9.7,6.12,12.56,7.7Z"/><path class="cls-4" d="M1257.79,707.34c7.48,8.26,21.92,24.21,17.78,31.72-4.56,8.27-29.8,3-64.88-4.33-26.61-5.56-23.56-6.87-37.57-9-34.71-5.16-42,4.91-76.81-.41-17.24-2.64-39.74-6.09-46.83-22.18a28.18,28.18,0,0,1-1.84-15.19H1234.5A107.85,107.85,0,0,1,1257.79,707.34Z"/><path class="cls-2" d="M1249.48,703.09c5.83,6.44,17.1,18.88,13.87,24.74-3.55,6.45-23.24,2.34-50.6-3.37-20.76-4.33-18.38-5.36-29.31-7-27.08-4-32.8,3.83-59.91-.32-13.45-2.06-31-4.75-36.53-17.3a22,22,0,0,1-1.44-11.85h145.75A84.12,84.12,0,0,1,1249.48,703.09Z"/><path class="cls-4" d="M1232,698.88c1.84,2,12.57,14.19,10,17.84-3.2,4.54-21.79-11.59-53.19-15.1-23.78-2.66-47,1-47,1-14.25,2.22-25.56,5.84-32.07-.32-4-3.82-4.59-9.86-4.45-14.25h113.6A60.66,60.66,0,0,1,1232,698.88Z"/><path class="cls-2" d="M1221.92,694.55c-.42,1.26-8.23-1.19-18.33-2.36-22.59-2.64-30.68,4.11-50.92.51a80.25,80.25,0,0,1-16.21-4.7l74.61-.06C1216.35,690.4,1222.29,693.42,1221.92,694.55Z"/><path class="cls-4" d="M1212.38,768H1144c-2.5-9.07-2.15-17.5,1.76-20.82,6.05-5.14,18.83,3.48,39,11.65A225.11,225.11,0,0,0,1212.38,768Z"/><path class="cls-2" d="M1188.74,768h-39.45c-.06-4.68,1-8.49,3.34-10.47C1158.39,752.64,1170.24,760.21,1188.74,768Z"/><path class="cls-4" d="M1366,768H1252.8c.49-4.66,2.17-7.14,3.75-8.59,8.69-7.9,27.34,4.1,36.48-5.16,2.35-2.39,1.63-3.71,3.87-7.75,2.46-4.44,7.11-9.63,16.62-13.78Z"/><path class="cls-2" d="M1365.71,768H1262.4a10.3,10.3,0,0,1,2.22-3c8.69-7.9,27.34,4.1,36.48-5.16,2.35-2.39,1.63-3.71,3.87-7.75,2.46-4.44,7.11-9.63,16.62-13.78Z"/><path class="cls-4" d="M1366,768h-53l.22-.21c2.35-2.39,1.63-3.71,3.87-7.75,2.46-4.44,7.11-9.63,16.61-13.77Z"/><path class="cls-24" d="M694,490a113.39,113.39,0,0,1-45.4,24.07c-34.4,9-62.95-1.2-72.93-5.31a100.46,100.46,0,0,0,53.65,11.46C665.31,517.67,688.07,496,694,490Z"/><path class="cls-24" d="M403.11,501c-.83-.77-13.78,7.72-21.91,22.26-13.57,24.26-5.46,50.56-3.13,57.38-2.39-10.61-3.87-25,.7-40.34C385.88,516.42,404.14,502,403.11,501Z"/><path class="cls-24" d="M410.41,492.35c-.26-.71,13.8-7.88,32-12.87,15.54-4.26,20.9-3.32,36.17-7.65A160.15,160.15,0,0,0,505,461.74,150.77,150.77,0,0,1,476.83,475c-10.91,3.8-14.73,3.7-35.47,9S410.64,493,410.41,492.35Z"/></g></svg>