<svg id="layer_1" data-name="layer 1" xmlns="http://www.w3.org/2000/svg" viewBox="0 0 1366 768"><defs><style>.cls-1{fill:#e2debf;}.cls-2{fill:#ccc497;}.cls-3{fill:#b54e4e;}.cls-4{fill:#a34343;}.cls-5{fill:#544e3c;}.cls-6{fill:#d88080;}.cls-7{fill:#423c2e;}</style></defs><title>fears-blackhole</title><path class="cls-1" d="M813.2,447.68c-15.67-10.18-34.15-18.11-49.59-11.87C730.23,449.3,733.44,520,729.56,519.7c-4.77-.34-28-85,23-149.46,28.13-35.6,65.39-47.92,80-51.92L803.41,365a186,186,0,0,0,9.79,82.73Z"/><path class="cls-2" d="M972.54,400.63c-12.49-19.51-37.92-26.17-56.9-15.82-18,9.8-26.6,32.91-18.7,53.78-23.86-42.09-60.23-66.45-93.17-73.57,3.17-20.63,11.27-36.65,23.55-44.46C858.13,301,928.9,324.49,972.54,400.63Z"/><path class="cls-3" d="M1020.49,709.22c-3.07,1.67-6.29,1.16-9.84,1.86a14.13,14.13,0,0,0-6.11,2.79c-4.74,3.65-4.16,7.16-7.22,9.94-8.92,8.1-37.7-.05-51.71-20-2.62-3.73-11-15.67-8.09-30,2.84-13.93,14.63-21.35,24.46-27.54,7.71-4.86,16.68-10.51,26.87-11a28.65,28.65,0,0,1,8.53.84c13.62,3.42,20.67,15.38,23.53,20.23C1032.44,675.93,1031.06,703.47,1020.49,709.22Z"/><path class="cls-4" d="M947.1,665.94c-1-1.37,4.84-8.43,12.53-12.75a52.86,52.86,0,0,1,7-3c13.24-5.39,19.34-10.21,19.83-9.52.65.91-9.16,10.05-21.93,17.66C962.9,659.27,948.47,667.81,947.1,665.94Z"/><path class="cls-5" d="M964.55,656.8c-1,.3-2.73-12.57-12.52-17.73a19.73,19.73,0,0,0-9.44-2.14,4.09,4.09,0,0,1,.11-4.11,4.19,4.19,0,0,1,2.9-1.82,27,27,0,0,1,13.7,8.9C965.23,647.36,965.34,656.55,964.55,656.8Z"/><path class="cls-4" d="M1020.49,709.22c-3.07,1.67-6.29,1.16-9.84,1.86a26.49,26.49,0,0,0,1.49-11.43c-1.14-11.61-9.84-13.94-11.88-25.72-2.2-12.66,6.52-17.77,3.46-26.58-1.33-3.82-4.92-8.43-14.87-12.06a28.65,28.65,0,0,1,8.53.84c13.62,3.42,20.67,15.38,23.53,20.23C1032.44,675.93,1031.06,703.47,1020.49,709.22Z"/><path class="cls-6" d="M946.7,672a16.16,16.16,0,0,0,6.78,26,47.17,47.17,0,0,1-6.78-26Z"/><path class="cls-7" d="M945.59,631c-1-.66-3.09.27-3.81,1.8s-.12,3.78,1.08,4.14c1,.3,2.2-.82,2.74-1.65C946.48,633.91,946.67,631.67,945.59,631Z"/></svg>